#!OML:ASF E:/inclinewalkrobotboard/Project1/Captureday1/Session1/subject1.ASF
:FULLY-SPECIFIED
:DEGREES
151
root 0 0 0 1.0531773225285503 -3.679152504315527 1.8629818896531058
lowerback 11.924766230119426 0.8571843268325927 -0.05841263947742831
upperback -4.224409133987541 1.086954879239411 -0.5566211500198535
thorax -11.29814346179802 0.496277664060425 -0.8002972101810004
lowerneck -5.667599002913347 1.4462031185172304 4.565666645204596
upperneck 18.081231666313773 2.882476864848525 -8.318885649927267
head 6.588601058950618 1.0476585343140483 -3.2216762493658067
rclavicle -8.962479382922497E-16 -3.4073041663029026E-16
rhumerus 20.16205615989066 14.711639024624057 -48.13966254432972
rradius 72.54663346385493
rwrist 26.737047453998592
rhand -34.75525518636027 -57.39324902663378
rfingers 7.125020000000038
rthumb -7.9165664123566835 -87.3082073374789
lclavicle 8.985816955743669E-16 -1.7417741979627205E-15
lhumerus 20.85218619663746 -12.753883751138957 45.283118937186295
lradius 69.94799699966484
lwrist -22.27379857204136
lhand -44.775331457933646 -69.72498931041841
lfingers 7.125020000000029
lthumb -17.56670333534338 -40.52725857777044
rfemur -24.89406553296872 -2.212328333299611 17.208099740546405
rtibia 54.04825020731289
rfoot -29.078225351680015 -16.733586838378454
rtoes -17.672385833897003
lfemur -26.680038090874014 2.4062688726800205 -18.294520768883725
ltibia 54.16477720242178
lfoot -31.062092056160957 -3.5259627525187325
ltoes -19.631826208443567
152
root 0 0 0 1.0537286408353106 -3.6780656021122797 1.8631643180223199
lowerback 11.924819927015825 0.8572957738858868 -0.0585312938613137
upperback -4.22469313262039 1.0870641775121272 -0.556835898771205
thorax -11.298486873890143 0.4963335528889176 -0.800487986685844
lowerneck -5.669200171170754 1.4463818244382347 4.5655815602368435
upperneck 18.08212328767818 2.882634978883891 -8.318327470149331
head 6.589161129278782 1.0477219801167497 -3.221475649563651
rclavicle -8.966750302415294E-16 -3.4516372833477595E-16
rhumerus 20.160092770734508 14.709278758257085 -48.13945352623047
rradius 72.54494673046709
rwrist 26.737452568359863
rhand -34.75676583648462 -57.39465457593737
rfingers 7.125020000000038
rthumb -7.918015229291274 -87.30968439499298
lclavicle 9.03501283173005E-16 -1.7480442853402561E-15
lhumerus 20.85142034971363 -12.750838352809422 45.28118240659782
lradius 69.94583910595534
lwrist -22.275921931854775
lhand -44.774753933233 -69.72561878219285
lfingers 7.1250200000000286
lthumb -17.56601219225652 -40.527642988813355
rfemur -24.894498007949643 -2.212260365268736 17.20810984116381
rtibia 54.04916886741299
rfoot -29.07920107320798 -16.73341271707484
rtoes -17.672176665238304
lfemur -26.67490179193641 2.4054844627004472 -18.294934417323702
ltibia 54.163098180442375
lfoot -31.064187478332855 -3.5263085045946823
ltoes -19.636424255390537
153
root 0 0 0 1.0530419465548426 -3.67935965137479 1.8629655314508275
lowerback 11.9247673786055 0.8571641672688844 -0.05835190734193857
upperback -4.224323324467135 1.0869377113323715 -0.5565769113513794
thorax -11.298045729763839 0.4962691412542764 -0.8002783448814008
lowerneck -5.667142920891582 1.446143705874348 4.565751401567938
upperneck 18.080934602884483 2.882416584917114 -8.319119774252513
head 6.588426027155861 1.0476333968450655 -3.221771392226572
rclavicle -8.975484294827909E-16 -3.428449334525132E-16
rhumerus 20.16040963113232 14.710150890998772 -48.14005939658243
rradius 72.54527790403456
rwrist 26.736924610512958
rhand -34.756267735885686 -57.393639441896
rfingers 7.125020000000038
rthumb -7.917556262850027 -87.30835410491153
lclavicle 9.009920686941637E-16 -1.7493239253035425E-15
lhumerus 20.851312092704564 -12.75178956483057 45.28178948136578
lradius 69.94617355088303
lwrist -22.2753958462593
lhand -44.774845219761225 -69.72461227945276
lfingers 7.125020000000029
lthumb -17.566234241056243 -40.52641146798882
rfemur -24.894403911272434 -2.2122829094177217 17.20833459435267
rtibia 54.04863500406207
rfoot -29.079468218949103 -16.732932603503595
rtoes -17.67210041723835
lfemur -26.676968242243912 2.4058409967666363 -18.29476860957573
ltibia 54.165466600174426
lfoot -31.061413317733333 -3.5285441303840295
ltoes -19.63213582443483
154
root 0 0 0 1.0528113056878912 -3.6797845810540397 1.8629086008596358
lowerback 11.924763276771033 0.8571226786412136 -0.05825744752673931
upperback -4.224177770160724 1.086901634262952 -0.5564890165978431
thorax -11.297875854024426 0.49625013311283567 -0.8002260742167983
lowerneck -5.666327230459807 1.4460266384563942 4.56583347221775
upperneck 18.080431256314107 2.88228981211215 -8.319449205950091
head 6.588125111287053 1.0475821548289492 -3.221900434257763
rclavicle -8.958384734718706E-16 -3.439469822296646E-16
rhumerus 20.160523457201116 14.710304104977457 -48.1398702355049
rradius 72.54531906421852
rwrist 26.73692643933127
rhand -34.75579314032748 -57.39299298148123
rfingers 7.125020000000038
rthumb -7.917098301301483 -87.30775141707693
lclavicle 9.033625113427039E-16 -1.750301972972204E-15
lhumerus 20.851541988404342 -12.752107865660934 45.28128477184464
lradius 69.94645033251086
lwrist -22.275575963271105
lhand -44.77465642675428 -69.72361735019801
lfingers 7.125020000000029
lthumb -17.566058712927873 -40.52538303496161
rfemur -24.89441143965027 -2.2122836195649254 17.208376648083224
rtibia 54.04876595131262
rfoot -29.07946841668541 -16.732901449642
rtoes -17.671907250182432
lfemur -26.676923836581903 2.4059403659993217 -18.29474729384974
ltibia 54.16614957398973
lfoot -31.06099094243962 -3.5287533936641022
ltoes -19.631847941469438
